<?xml version="1.0" standalone="no"?>
<!DOCTYPE svg PUBLIC "-//W3C//DTD SVG 20010904//EN"
 "http://www.w3.org/TR/2001/REC-SVG-20010904/DTD/svg10.dtd">
<svg version="1.0" xmlns="http://www.w3.org/2000/svg"
 width="1024.000000pt" height="1024.000000pt" viewBox="0 0 1024.000000 1024.000000"
 preserveAspectRatio="xMidYMid meet">

<g transform="translate(0.000000,1024.000000) scale(0.100000,-0.100000)"
fill="#000000" stroke="none">
<path d="M7300 6445 c-8 -2 -49 -9 -90 -15 -243 -39 -469 -159 -661 -349 -180
-179 -283 -361 -344 -605 -122 -493 32 -992 408 -1322 265 -233 629 -335 997
-280 454 69 855 417 998 867 108 338 82 711 -71 1015 -90 179 -253 370 -404
472 -149 101 -351 182 -520 207 -85 13 -268 19 -313 10z m365 -420 c296 -87
510 -314 597 -635 32 -120 32 -336 -1 -460 -67 -256 -247 -485 -466 -594 -125
-61 -207 -79 -375 -80 -154 -1 -211 9 -332 58 -193 78 -373 260 -459 465 -97
231 -98 511 -4 743 93 228 281 411 505 490 156 56 373 61 535 13z"/>
<path d="M1677 6414 c-4 -4 -7 -571 -7 -1261 l0 -1253 205 0 205 0 1 963 c0
848 2 960 15 941 225 -322 850 -1201 857 -1206 16 -10 32 0 51 32 18 32 29 47
499 705 169 237 316 441 327 455 19 25 20 21 20 -932 l0 -958 205 0 205 0 0
1260 0 1260 -233 0 -233 0 -259 -367 c-471 -670 -560 -793 -570 -790 -10 3
-106 136 -325 447 -60 85 -196 279 -303 430 l-194 275 -230 3 c-126 1 -232 -1
-236 -4z"/>
<path d="M4500 5160 l0 -1260 200 0 200 0 0 566 0 565 22 -7 c12 -4 31 -18 42
-33 11 -14 41 -48 67 -76 58 -63 569 -648 749 -858 l135 -157 253 0 c275 0
273 -1 230 56 -12 16 -88 103 -168 194 -80 91 -318 361 -529 600 -211 239
-395 447 -409 462 l-25 28 54 57 c307 326 926 981 971 1027 95 98 99 96 -183
96 l-242 0 -31 -33 c-237 -252 -921 -957 -927 -957 -5 0 -9 220 -9 495 l0 495
-200 0 -200 0 0 -1260z"/>
</g>
</svg>
